<svg width="68" height="39" viewBox="0 0 68 39" fill="none" xmlns="http://www.w3.org/2000/svg">
<path d="M29.0666 5.83725H19.6763C18.6405 5.83725 17.7982 6.67957 17.7982 7.71533V12.9608L13.3781 17.3808C13.2468 17.5122 13.1574 17.6795 13.1212 17.8616C13.085 18.0437 13.1036 18.2325 13.1747 18.4041C13.2457 18.5756 13.366 18.7223 13.5204 18.8255C13.6748 18.9286 13.8563 18.9837 14.042 18.9838V23.679C14.042 23.928 14.141 24.1669 14.3171 24.343C14.4932 24.5191 14.732 24.618 14.9811 24.618H30.0057C30.2547 24.618 30.4936 24.5191 30.6697 24.343C30.8458 24.1669 30.9447 23.928 30.9447 23.679V7.71533C30.9447 6.67957 30.1024 5.83725 29.0666 5.83725ZM21.5543 22.7399H15.9201V17.4945L18.7372 14.6774L21.5543 17.4945V22.7399ZM29.0666 22.7399H23.4324V18.9838C23.6183 18.9842 23.8001 18.9294 23.9548 18.8263C24.1095 18.7231 24.2301 18.5764 24.3012 18.4047C24.3723 18.2329 24.3908 18.0439 24.3543 17.8616C24.3179 17.6793 24.2281 17.512 24.0963 17.3808L19.6763 12.9608V7.71533H29.0666V22.7399Z" fill="black"/>
<path d="M21.5544 9.59338H23.4324V11.4715H21.5544V9.59338ZM25.3105 9.59338H27.1886V11.4715H25.3105V9.59338ZM25.3105 13.3786H27.1886V15.2276H25.3105V13.3786ZM25.3105 17.1057H27.1886V18.9838H25.3105V17.1057ZM17.7982 18.0447H19.6763V19.9228H17.7982V18.0447Z" fill="black"/>
<g clip-path="url(#clip0)">
<path fill-rule="evenodd" clip-rule="evenodd" d="M13.5419 25.4412C13.3157 25.2147 13.047 25.035 12.7512 24.9123C12.4554 24.7897 12.1384 24.7266 11.8182 24.7266C11.498 24.7266 11.181 24.7897 10.8852 24.9123C10.5894 25.035 10.3207 25.2147 10.0945 25.4412L0.714353 34.8214C0.257187 35.2783 0.000225067 35.898 -2.86102e-06 36.5443C-0.000231743 37.1906 0.256292 37.8106 0.713135 38.2677C1.16998 38.7249 1.78972 38.9819 2.43602 38.9821C3.08232 38.9823 3.70224 38.7258 4.15941 38.269L13.5395 28.8887C13.766 28.6625 13.9457 28.3937 14.0684 28.098C14.191 27.8022 14.2541 27.4851 14.2541 27.165C14.2541 26.8448 14.191 26.5277 14.0684 26.232C13.9457 25.9362 13.766 25.6675 13.5395 25.4412H13.5419Z" fill="black"/>
<path fill-rule="evenodd" clip-rule="evenodd" d="M23.1462 29.2371C21.3865 29.2371 19.644 28.8905 18.0182 28.217C16.3924 27.5436 14.9152 26.5565 13.6709 25.3122C12.4266 24.0679 11.4395 22.5906 10.7661 20.9648C10.0927 19.339 9.74606 17.5965 9.74606 15.8367C9.74606 14.077 10.0927 12.3345 10.7661 10.7087C11.4395 9.08286 12.4266 7.60562 13.6709 6.36129C14.9152 5.11695 16.3924 4.12989 18.0182 3.45646C19.644 2.78303 21.3865 2.43642 23.1462 2.43642C26.7002 2.43642 30.1085 3.84824 32.6216 6.36129C35.1346 8.87434 36.5464 12.2828 36.5464 15.8367C36.5464 19.3907 35.1346 22.7992 32.6216 25.3122C30.1085 27.8253 26.7002 29.2371 23.1462 29.2371ZM7.30967 15.8367C7.30967 20.0369 8.97816 24.0651 11.9481 27.035C14.918 30.005 18.9461 31.6735 23.1462 31.6735C27.3463 31.6735 31.3744 30.005 34.3443 27.035C37.3143 24.0651 38.9828 20.0369 38.9828 15.8367C38.9828 11.6366 37.3143 7.60844 34.3443 4.63848C31.3744 1.66851 27.3463 0 23.1462 0C18.9461 0 14.918 1.66851 11.9481 4.63848C8.97816 7.60844 7.30967 11.6366 7.30967 15.8367Z" fill="black"/>
</g>
<path d="M49.362 14.668C48.354 14.668 47.592 14.89 47.076 15.334C46.56 15.766 46.302 16.42 46.302 17.296V18.07H51.486V20.41H46.302V25H43.386V17.314C43.386 15.694 43.89 14.434 44.898 13.534C45.918 12.634 47.34 12.184 49.164 12.184C49.884 12.184 50.562 12.262 51.198 12.418C51.834 12.562 52.386 12.778 52.854 13.066L51.954 15.37C51.234 14.902 50.37 14.668 49.362 14.668ZM66.1242 12.4V25H63.2082V19.834H57.4842V25H54.5682V12.4H57.4842V17.368H63.2082V12.4H66.1242Z" fill="black"/>
<defs>
<clipPath id="clip0">
<rect width="38.9828" height="38.9828" fill="white"/>
</clipPath>
</defs>
</svg>
